<?xml version="1.0" encoding="utf-8"?>
<!-- Generator: Adobe Illustrator 20.1.0, SVG Export Plug-In . SVG Version: 6.00 Build 0)  -->
<svg version="1.1" id="Layer_1" xmlns="http://www.w3.org/2000/svg" xmlns:xlink="http://www.w3.org/1999/xlink" x="0px" y="0px"
	 viewBox="0 0 75.5 50.1" style="enable-background:new 0 0 75.5 50.1;" xml:space="preserve">
<style type="text/css">
	.st0{fill:none;}
	.st1{fill:#010101;}
</style>
<g>
	<g>
		<path class="st0" d="M2.5,101.8h68.6c0.4,0,0.8-0.4,0.8-0.8V56.1c0-0.4-0.4-0.8-0.8-0.8H2.5c-0.4,0-0.8,0.4-0.8,0.8V101
			C1.7,101.4,2.1,101.8,2.5,101.8z"/>
		<path d="M69.9,103H3.7c-1.8,0-3.2-1.4-3.2-3.2V57.3c0-1.8,1.4-3.2,3.2-3.2h66.2c1.8,0,3.2,1.4,3.2,3.2v42.5
			C73.2,101.6,71.7,103,69.9,103z M3.7,56.5c-0.4,0-0.7,0.3-0.7,0.7v42.5c0,0.4,0.3,0.7,0.7,0.7h66.2c0.4,0,0.7-0.3,0.7-0.7V57.3
			c0-0.4-0.3-0.7-0.7-0.7H3.7z"/>
	</g>
	<g>
		<path d="M67.9,96.7H31.6V70.1h36.3V96.7z M34.1,94.2h31.3V72.6H34.1V94.2z"/>
	</g>
	<g>
		<path d="M29.7,96.7H4.9V70.1h24.8V96.7z M7.4,94.2h19.8V72.6H7.4V94.2z"/>
	</g>
	<g>
		<rect x="4.9" y="62.8" width="62.9" height="2.5"/>
	</g>
</g>
<path class="st1" d="M113.7,49.2L113.7,49.2c-0.4,0-0.9-0.2-1.2-0.5l-10.9-10.9c-0.7-0.7-0.7-1.7,0-2.4L136.1,1
	c0.7-0.7,1.7-0.7,2.4,0l10.9,10.9c0.7,0.7,0.7,1.7,0,2.4l-34.4,34.4C114.6,49,114.1,49.2,113.7,49.2z M105.2,36.6l8.5,8.5L145.7,13
	l-8.5-8.5L105.2,36.6z"/>
<path class="st1" d="M124.8,37.7c-0.4,0-0.9-0.2-1.2-0.5l-5.4-5.4c-0.7-0.7-0.7-1.7,0-2.4s1.7-0.7,2.4,0l5.4,5.4
	c0.7,0.7,0.7,1.7,0,2.4C125.7,37.5,125.2,37.7,124.8,37.7z"/>
<path class="st1" d="M142,20.5c-0.4,0-0.9-0.2-1.2-0.5l-2.7-2.7c-0.7-0.7-0.7-1.7,0-2.4c0.7-0.7,1.7-0.7,2.4,0l2.7,2.7
	c0.7,0.7,0.7,1.7,0,2.4C142.9,20.3,142.5,20.5,142,20.5z"/>
<path class="st1" d="M136.3,26.2c-0.4,0-0.9-0.2-1.2-0.5l-2.7-2.7c-0.7-0.7-0.7-1.7,0-2.4c0.7-0.7,1.7-0.7,2.4,0l2.7,2.7
	c0.7,0.7,0.7,1.7,0,2.4C137.1,26,136.7,26.2,136.3,26.2z"/>
<path class="st1" d="M130.5,31.9c-0.4,0-0.9-0.2-1.2-0.5l-2.7-2.7c-0.7-0.7-0.7-1.7,0-2.4s1.7-0.7,2.4,0l2.7,2.7
	c0.7,0.7,0.7,1.7,0,2.4C131.4,31.8,131,31.9,130.5,31.9z"/>
<path class="st1" d="M124.8,37.7c-0.4,0-0.9-0.2-1.2-0.5l-2.7-2.7c-0.7-0.7-0.7-1.7,0-2.4c0.7-0.7,1.7-0.7,2.4,0l2.7,2.7
	c0.7,0.7,0.7,1.7,0,2.4C125.7,37.5,125.2,37.7,124.8,37.7z"/>
<path class="st1" d="M119.1,43.4c-0.4,0-0.9-0.2-1.2-0.5l-2.7-2.7c-0.7-0.7-0.7-1.7,0-2.4s1.7-0.7,2.4,0l2.7,2.7
	c0.7,0.7,0.7,1.7,0,2.4C119.9,43.2,119.5,43.4,119.1,43.4z"/>
<path class="st1" d="M136.3,26.2c-0.4,0-0.9-0.2-1.2-0.5l-5.4-5.4c-0.7-0.7-0.7-1.7,0-2.4c0.7-0.7,1.7-0.7,2.4,0l5.4,5.4
	c0.7,0.7,0.7,1.7,0,2.4C137.1,26,136.7,26.2,136.3,26.2z"/>
<g>
	<g>
		<path d="M56.9,19.7c-0.4,0-0.8-0.2-1.1-0.5l-11-11c-0.6-0.6-0.6-1.6,0-2.2c0.6-0.6,1.6-0.6,2.2,0l11,11c0.6,0.6,0.6,1.6,0,2.2
			C57.7,19.5,57.3,19.7,56.9,19.7z"/>
	</g>
	<g>
		<path d="M15.7,49.9c-0.4,0-0.8-0.1-1.1-0.4c-0.6-0.6-0.6-1.6,0-2.2l3.8-3.9c0.6-0.6,1.6-0.6,2.2,0c0.6,0.6,0.6,1.6,0,2.2l-3.8,3.9
			C16.5,49.7,16.1,49.9,15.7,49.9z"/>
	</g>
	<g>
		<path d="M34.1,42.3c-0.9,0-1.6-0.7-1.6-1.6c0-2.9-0.8-5.1-2.4-6.7c-2.7-2.7-7.1-2.7-7-2.7c-0.8,0-1.6-0.7-1.6-1.5
			c0-0.9,0.7-1.6,1.5-1.6c0.2,0,5.5,0,9.2,3.6c2.2,2.2,3.4,5.2,3.4,8.9C35.7,41.6,35,42.3,34.1,42.3z"/>
	</g>
	<g>
		<path d="M22.2,48.2c-0.8,0-1.5-0.3-2-0.8l-3.7-3.7c-0.5-0.5-0.8-1.3-0.8-2c0-0.8,0.3-1.5,0.8-2l1.6-1.6l3.6-8.9
			c0.1-0.2,0.2-0.4,0.3-0.5L47.9,2.9c1.8-1.8,4.1-2.7,6.6-2.7c2.5,0,4.8,1,6.6,2.7c1.8,1.8,2.7,4.1,2.7,6.6c0,2.5-1,4.8-2.7,6.6
			L35.2,41.9c-0.1,0.1-0.3,0.3-0.5,0.3l-8.9,3.5l-1.6,1.6C23.7,47.9,23,48.2,22.2,48.2z M18.9,41.7l3.3,3.3l1.7-1.7
			c0.1-0.1,0.3-0.3,0.5-0.3l8.9-3.5l25.6-25.5c1.2-1.2,1.8-2.7,1.8-4.4c0-1.7-0.6-3.2-1.8-4.4c-1.2-1.2-2.7-1.8-4.4-1.8
			c-1.7,0-3.2,0.6-4.4,1.8L24.4,30.7l-3.6,8.9c-0.1,0.2-0.2,0.4-0.3,0.5L18.9,41.7z"/>
	</g>
</g>
</svg>
